<svg width="25" height="25" xmlns="http://www.w3.org/2000/svg" clip-rule="evenodd" fill-rule="evenodd" image-rendering="optimizeQuality" text-rendering="geometricPrecision" shape-rendering="geometricPrecision">

 <g>
  <title>Layer 1</title>
  <path fill="white" stroke="null" opacity="0.92" id="svg_1" d="m12.46101,0.0404c3.39984,0 6.47933,1.39014 8.70742,3.63688c2.22808,2.24673 3.60668,5.352 3.60668,8.78031s-1.3786,6.53309 -3.60668,8.77983c-2.22809,2.24674 -5.30758,3.63688 -8.70742,3.63688s-6.47934,-1.39014 -8.70742,-3.63688c-2.22808,-2.24674 -3.60669,-5.35152 -3.60669,-8.77983c0,-3.42831 1.37861,-6.53358 3.60669,-8.78031c2.22808,-2.24674 5.30757,-3.63688 8.70742,-3.63688zm-3.21899,8.1643l1.8298,0c0.24484,0 0.44446,0.20421 0.44446,0.44818l0,7.60893c0,0.24398 -0.20154,0.4477 -0.44446,0.4477l-1.8298,0c-0.24195,0 -0.44398,-0.20178 -0.44398,-0.4477l0,-7.60893c0,-0.24688 0.19963,-0.44818 0.44398,-0.44818zm4.60673,0l1.83076,0c0.24436,0 0.44398,0.20372 0.44398,0.44818l0,7.60893c0,0.24398 -0.20155,0.4477 -0.44398,0.4477l-1.83076,0c-0.24244,0 -0.44398,-0.20178 -0.44398,-0.4477l0,-7.60893c0,-0.24688 0.2001,-0.44818 0.44398,-0.44818zm6.15224,-3.35022c-1.92937,-1.94503 -4.59566,-3.14892 -7.53998,-3.14892c-2.94432,0 -5.61062,1.20389 -7.53999,3.14892c-1.92888,1.94553 -3.12278,4.63414 -3.12278,7.60311c0,2.96897 1.1939,5.6571 3.12278,7.60262c1.92937,1.94504 4.59567,3.14893 7.53999,3.14893c2.94432,0 5.61061,-1.20389 7.53998,-3.14893c1.92889,-1.94552 3.12278,-4.63365 3.12278,-7.60262c0,-2.96897 -1.19389,-5.65758 -3.12278,-7.60311z" fill-rule="nonzero"/>
 </g>
</svg>