<?xml version="1.0" encoding="iso-8859-1"?>
<!-- Generator: Adobe Illustrator 19.0.0, SVG Export Plug-In . SVG Version: 6.00 Build 0)  -->
<svg version="1.1" id="Capa_1" xmlns="http://www.w3.org/2000/svg" xmlns:xlink="http://www.w3.org/1999/xlink" x="0px" y="0px"
	 viewBox="0 0 512 512" style="enable-background:new 0 0 512 512;" xml:space="preserve">
<g>
	<g>
		<path d="M383.147,236.268l-167.564-104.73c-7.174-4.485-16.216-4.721-23.617-0.621c-7.399,4.102-11.99,11.895-11.99,20.356
			v209.455c0,8.46,4.591,16.254,11.99,20.356c3.516,1.949,7.401,2.917,11.281,2.917c4.287,0,8.569-1.184,12.335-3.537
			L383.146,275.74c6.805-4.253,10.938-11.711,10.938-19.735C394.085,247.979,389.952,240.52,383.147,236.268z M226.521,318.737
			V193.263l100.38,62.739L226.521,318.737z"/>
	</g>
</g>
<g>
	<g>
		<path d="M256,0C114.842,0,0,114.842,0,256s114.842,256,256,256s256-114.842,256-256S397.158,0,256,0z M256,465.455
			c-115.495,0-209.455-93.961-209.455-209.455S140.505,46.545,256,46.545S465.455,140.507,465.455,256S371.493,465.455,256,465.455z
			"/>
	</g>
</g>
<g>
</g>
<g>
</g>
<g>
</g>
<g>
</g>
<g>
</g>
<g>
</g>
<g>
</g>
<g>
</g>
<g>
</g>
<g>
</g>
<g>
</g>
<g>
</g>
<g>
</g>
<g>
</g>
<g>
</g>
</svg>
