<svg width="25" height="25" xmlns="http://www.w3.org/2000/svg" clip-rule="evenodd" fill-rule="evenodd" image-rendering="optimizeQuality" text-rendering="geometricPrecision" shape-rendering="geometricPrecision">

 <g>
  <title>Layer 1</title>
  <path fill="white" stroke="null" id="svg_1" d="m12.45442,0.08648c3.42211,0 6.52177,1.38763 8.76445,3.63031c2.24268,2.24268 3.63079,5.34185 3.63079,8.76445c0,3.42211 -1.38812,6.52129 -3.63079,8.76396c-2.24268,2.24268 -5.34233,3.63079 -8.76445,3.63079s-6.52129,-1.38812 -8.76396,-3.63079c-2.24268,-2.24268 -3.63031,-5.34185 -3.63031,-8.76396c0,-3.42163 1.38763,-6.52177 3.63031,-8.76445c2.24268,-2.24268 5.34185,-3.63031 8.76396,-3.63031zm3.74748,13.06339c0.66573,-0.42994 0.66331,-0.90879 0,-1.28934l-5.33894,-3.71697c-0.54179,-0.34086 -1.10827,-0.14041 -1.09326,0.56745l0.0213,7.47898c0.04648,0.76789 0.48514,0.97851 1.13151,0.62313l5.27939,-3.66323zm3.84189,-8.258c-1.94152,-1.94152 -4.62576,-3.14323 -7.58937,-3.14323c-2.9636,0 -5.64688,1.20171 -7.58888,3.14323c-1.94152,1.94201 -3.14323,4.62576 -3.14323,7.58937c0,2.96409 1.20171,5.64736 3.14323,7.58888c1.94201,1.94201 4.62528,3.14372 7.58888,3.14372c2.9636,0 5.64784,-1.20171 7.58937,-3.14372c1.94201,-1.94152 3.14372,-4.62479 3.14372,-7.58888c0,-2.96409 -1.20171,-5.64736 -3.14372,-7.58937z" fill-rule="nonzero"/>
 </g>
</svg>